<svg width="570.9986694335937px" height="191.6px" xmlns="http://www.w3.org/2000/svg" viewBox="-35.49933471679685 -20.799999999999997 570.9986694335937 191.6" style="background: rgb(253, 253, 253);" preserveAspectRatio="xMidYMid"><defs><filter id="editing-raise" x="-100%" y="-100%" width="300%" height="300%"><feFlood flood-color="#9605ff" result="flood-surface"></feFlood><feFlood flood-color="#000000" result="flood-extrude"></feFlood><feMorphology operator="erode" in="SourceAlpha" radius="1" result="erode"></feMorphology><feConvolveMatrix in="erode" result="shadow" order="11,8" divisor="1" kernelMatrix="0 0 0 1 1 1 1 1 0 0 0 0 0 1 0 0 0 0 0 1 0 0 0 0 1 0 0 0 0 0 1 0 0 0 0 1 0 0 0 0 0 1 0 0 0 0 1 0 0 0 0 0 1 0 0 0 0 0 1 0 0 0 1 0 0 0 0 0 0 1 1 0 1 1 0 0 0 0 0 0 0 0 1 0 0 0 0 0"></feConvolveMatrix><feOffset dx="0" dy="4" in="shadow" result="offset"></feOffset><feGaussianBlur in="offset" stdDeviation="0.2" result="blur"></feGaussianBlur><feComposite operator="in" in="flood-extrude" in2="blur" result="extrude"></feComposite><feMorphology operator="erode" in="SourceAlpha" radius="1" result="erode2"></feMorphology><feConvolveMatrix in="erode2" result="out" order="4,4" divisor="1" kernelMatrix="0 1 1 0 1 0 0 1 1 0 0 1 0 1 1 0 "></feConvolveMatrix><feComposite operator="in" in="flood-surface" in2="out" result="text"></feComposite><feMerge><feMergeNode in="extrude"></feMergeNode><feMergeNode in="text"></feMergeNode></feMerge></filter></defs><g filter="url(#editing-raise)"><g transform="translate(47.27558469772339, 128.6861743927002)"><path d="M31.42-0.10L31.42-0.10L25.60-0.20L25.60-0.20Q24.38-0.20 23.15-0.20L23.15-0.20L4.59 0.71L4.59 0.71Q3.06 0.71 3.06-0.31L3.06-0.31L3.06-0.31Q3.06-0.61 3.37-1.73L3.37-1.73L3.37-1.73Q4.39-4.08 4.85-16.63L4.85-16.63L4.85-16.63Q5.30-29.17 5.30-39.53L5.30-39.53L5.30-39.53Q5.30-49.88 4.90-56.30L4.90-56.30L4.90-56.30Q4.28-65.99 2.86-67.93L2.86-67.93L2.86-67.93Q1.73-69.36 1.73-69.77L1.73-69.77L1.73-69.77Q1.73-71.40 7.24-72.62L7.24-72.62L7.24-72.62Q12.75-73.85 15.15-73.85L15.15-73.85L15.15-73.85Q17.54-73.85 18.16-73.59L18.16-73.59L18.16-73.59Q18.77-73.34 18.77-72.52L18.77-72.52L18.77-72.52Q18.77-71.71 18.36-67.32L18.36-67.32L18.36-67.32Q17.34-54.37 17.34-37.18L17.34-37.18L17.34-37.18Q17.34-19.99 18.16-9.69L18.16-9.69L18.16-9.69Q18.16-8.57 20.09-7.75L20.09-7.75L20.09-7.75Q22.03-6.94 24.89-6.94L24.89-6.94L24.89-6.94Q34.88-6.94 34.88-22.34L34.88-22.34L34.88-22.34Q34.88-26.62 34.43-27.64L34.43-27.64L34.43-27.64Q33.97-28.66 33.97-28.97L33.97-28.97L33.97-28.97Q33.97-29.99 35.39-29.99L35.39-29.99L35.39-29.99Q36.52-29.99 38.40-28.87L38.40-28.87L38.40-28.87Q40.29-27.74 41.51-26.06L41.51-26.06L41.51-26.06Q42.74-24.38 43.76-20.76L43.76-20.76L43.76-20.76Q44.78-17.14 44.78-12.24L44.78-12.24L44.78-12.24Q44.78-0.10 41.82-0.10L41.82-0.10L41.82-0.10Q36.62-0.10 31.42-0.10ZM58.55-38.45L58.55-38.45L58.55-38.45Q55.90-38.35 54.72-38.30L54.72-38.30L54.72-38.30Q53.55-38.25 53.55-38.86L53.55-38.86L53.55-38.86Q53.55-39.47 54.16-40.09L54.16-40.09L54.16-40.09Q60.69-46.10 76.19-46.10L76.19-46.10L76.19-46.10Q81.50-46.10 84.56-45.19L84.56-45.19L85.58-44.88L85.58-44.88Q86.80-44.37 86.80-43.76L86.80-43.76L86.80-43.76Q86.80-43.25 86.09-42.94L86.09-42.94L86.09-42.94Q83.33-42.13 80.78-40.34L80.78-40.34L80.78-40.34Q78.23-38.56 78.23-37.84L78.23-37.84L78.85-37.13L78.85-37.13Q82.11-35.29 83.90-31.31L83.90-31.31L83.90-31.31Q85.68-27.34 85.88-24.28L85.88-24.28L86.09-21.11L86.09-21.11Q86.09-11.02 80.48-4.49L80.48-4.49L80.48-4.49Q74.87 2.04 65.18 2.04L65.18 2.04L65.18 2.04Q60.28 2.04 56.71 0.31L56.71 0.31L56.71 0.31Q53.14-1.43 51.46-3.62L51.46-3.62L51.46-3.62Q49.78-5.81 48.76-8.57L48.76-8.57L48.76-8.57Q47.53-12.34 47.53-16.37L47.53-16.37L47.53-16.37Q47.53-20.40 48.91-24.48L48.91-24.48L48.91-24.48Q50.29-28.56 52.07-30.50L52.07-30.50L52.07-30.50Q53.86-32.44 56.10-33.66L56.10-33.66L56.10-33.66Q58.96-35.19 60.69-35.19L60.69-35.19L60.69-35.19Q62.42-35.19 62.42-34.48L62.42-34.48L61.81-33.46L61.81-33.46Q59.57-30.80 58.60-26.52L58.60-26.52L58.60-26.52Q57.63-22.24 57.63-18.92L57.63-18.92L57.63-18.92Q57.63-15.61 58.45-12.34L58.45-12.34L58.45-12.34Q59.26-9.08 60.28-7.50L60.28-7.50L60.28-7.50Q61.30-5.92 62.63-5.10L62.63-5.10L62.63-5.10Q64.57-3.88 66.71-3.88L66.71-3.88L66.71-3.88Q68.85-3.88 70.89-5.56L70.89-5.56L70.89-5.56Q72.93-7.24 73.85-10.00L73.85-10.00L73.85-10.00Q75.68-15.10 75.68-20.50L75.68-20.50L75.68-20.50Q75.68-29.07 71.35-33.76L71.35-33.76L71.35-33.76Q67.01-38.45 58.55-38.45ZM101.39-38.45L101.39-38.45L101.39-38.45Q98.74-38.35 97.56-38.30L97.56-38.30L97.56-38.30Q96.39-38.25 96.39-38.86L96.39-38.86L96.39-38.86Q96.39-39.47 97.00-40.09L97.00-40.09L97.00-40.09Q103.53-46.10 119.03-46.10L119.03-46.10L119.03-46.10Q124.34-46.10 127.40-45.19L127.40-45.19L128.42-44.88L128.42-44.88Q129.64-44.37 129.64-43.76L129.64-43.76L129.64-43.76Q129.64-43.25 128.93-42.94L128.93-42.94L128.93-42.94Q126.17-42.13 123.62-40.34L123.62-40.34L123.62-40.34Q121.07-38.56 121.07-37.84L121.07-37.84L121.69-37.13L121.69-37.13Q124.95-35.29 126.74-31.31L126.74-31.31L126.74-31.31Q128.52-27.34 128.72-24.28L128.72-24.28L128.93-21.11L128.93-21.11Q128.93-11.02 123.32-4.49L123.32-4.49L123.32-4.49Q117.71 2.04 108.02 2.04L108.02 2.04L108.02 2.04Q103.12 2.04 99.55 0.31L99.55 0.31L99.55 0.31Q95.98-1.43 94.30-3.62L94.30-3.62L94.30-3.62Q92.62-5.81 91.60-8.57L91.60-8.57L91.60-8.57Q90.37-12.34 90.37-16.37L90.37-16.37L90.37-16.37Q90.37-20.40 91.75-24.48L91.75-24.48L91.75-24.48Q93.13-28.56 94.91-30.50L94.91-30.50L94.91-30.50Q96.70-32.44 98.94-33.66L98.94-33.66L98.94-33.66Q101.80-35.19 103.53-35.19L103.53-35.19L103.53-35.19Q105.26-35.19 105.26-34.48L105.26-34.48L104.65-33.46L104.65-33.46Q102.41-30.80 101.44-26.52L101.44-26.52L101.44-26.52Q100.47-22.24 100.47-18.92L100.47-18.92L100.47-18.92Q100.47-15.61 101.29-12.34L101.29-12.34L101.29-12.34Q102.10-9.08 103.12-7.50L103.12-7.50L103.12-7.50Q104.14-5.92 105.47-5.10L105.47-5.10L105.47-5.10Q107.41-3.88 109.55-3.88L109.55-3.88L109.55-3.88Q111.69-3.88 113.73-5.56L113.73-5.56L113.73-5.56Q115.77-7.24 116.69-10.00L116.69-10.00L116.69-10.00Q118.52-15.10 118.52-20.50L118.52-20.50L118.52-20.50Q118.52-29.07 114.19-33.76L114.19-33.76L114.19-33.76Q109.85-38.45 101.39-38.45ZM157.28 0.61L157.28 0.61L157.28 0.61Q158.71-6.53 158.71-19.43L158.71-19.43L158.71-19.43Q158.71-32.33 158.61-34.68L158.61-34.68L158.61-34.68Q158.51-37.03 157.18-38.45L157.18-38.45L157.18-38.45Q155.86-39.88 154.89-40.09L154.89-40.09L154.89-40.09Q153.92-40.29 152.18-40.29L152.18-40.29L152.18-40.29Q150.45-40.29 148.82-38.71L148.82-38.71L148.82-38.71Q147.19-37.13 146.88-35.50L146.88-35.50L146.47-33.86L146.47-33.86Q146.17-30.80 146.17-20.30L146.17-20.30L146.17-20.30Q146.17-9.79 146.63-7.09L146.63-7.09L146.63-7.09Q147.08-4.39 147.08-3.47L147.08-3.47L147.08-3.47Q147.08-2.55 146.27-1.63L146.27-1.63L146.27-1.63Q142.80 2.04 136.48 2.04L136.48 2.04L136.48 2.04Q134.23 2.04 134.23 0.71L134.23 0.71L134.23 0.71Q136.27-11.53 136.27-30.50L136.27-30.50L136.27-30.50Q136.27-37.54 135.97-39.98L135.97-39.98L135.56-43.25L135.56-43.25Q135.46-44.37 135.15-45.70L135.15-45.70L135.15-45.70Q135.15-46.92 138.31-46.92L138.31-46.92L138.31-46.92Q143.00-46.92 144.53-43.45L144.53-43.45L144.53-43.45Q144.64-43.04 144.94-43.04L144.94-43.04L144.94-43.04Q145.25-43.04 146.37-43.86L146.37-43.86L146.37-43.86Q149.74-46.51 155.45-46.51L155.45-46.51L155.45-46.51Q158.71-46.51 161.87-45.29L161.87-45.29L161.87-45.29Q165.04-44.06 166.26-42.02L166.26-42.02L166.26-42.02Q166.36-41.82 166.57-41.82L166.57-41.82L166.57-41.82Q166.77-41.82 167.18-42.23L167.18-42.23L167.18-42.23Q171.46-46.51 178.30-46.51L178.30-46.51L178.30-46.51Q187.37-46.51 190.74-39.98L190.74-39.98L190.74-39.98Q191.96-37.43 191.96-33.56L191.96-33.56L191.96-33.56Q191.96-29.68 191.35-22.54L191.35-22.54L191.35-22.54Q190.74-15.40 190.74-11.63L190.74-11.63L190.74-11.63Q190.74-7.85 191.51-4.79L191.51-4.79L191.51-4.79Q192.27-1.73 193.04-0.41L193.04-0.41L193.04-0.41Q193.80 0.92 193.80 1.12L193.80 1.12L193.80 1.12Q193.80 2.45 190.94 2.45L190.94 2.45L190.94 2.45Q183.91 2.45 181.15-0.41L181.15-0.41L181.15-0.41Q178.40-3.26 178.40-7.91L178.40-7.91L178.40-7.91Q178.40-12.55 180.29-20.45L180.29-20.45L180.29-20.45Q182.17-28.36 182.17-32.33L182.17-32.33L182.17-32.33Q182.17-40.39 175.64-40.39L175.64-40.39L175.64-40.39Q172.89-40.39 171.26-38.76L171.26-38.76L171.26-38.76Q169.63-37.13 169.32-35.50L169.32-35.50L169.12-33.86L169.12-33.86Q168.71-29.17 168.71-22.54L168.71-22.54L168.71-22.54Q168.71-15.91 168.91-12.19L168.91-12.19L168.91-12.19Q169.12-8.47 169.32-6.38L169.32-6.38L169.32-6.38Q169.52-4.28 169.52-3.88L169.52-3.88L169.52-3.88Q169.52-1.02 165.95 0.51L165.95 0.51L165.95 0.51Q162.38 2.04 159.02 2.04L159.02 2.04L159.02 2.04Q157.28 2.04 157.28 0.61ZM230.52-45.90L230.52-45.90L230.62-33.15L230.21-15.50L230.21-15.50Q230.32-15.10 230.52-15.10L230.52-15.10L230.52-15.10Q230.72-15.10 230.83-15.30L230.83-15.30L230.83-15.30Q232.87-18.16 235.88-18.16L235.88-18.16L235.88-18.16Q238.88-18.16 238.88-16.93L238.88-16.93L238.88-16.93Q238.88-13.06 240.36-10.97L240.36-10.97L240.36-10.97Q241.84-8.87 244.55-8.87L244.55-8.87L244.55-8.87Q247.25-8.87 249.75-12.55L249.75-12.55L249.75-12.55Q252.25-16.22 252.25-22.34L252.25-22.34L252.25-22.34Q252.25-24.38 251.43-27.23L251.43-27.23L251.43-27.23Q249.80-32.95 245.31-34.88L245.31-34.88L245.31-34.88Q242.05-36.21 234.70-36.21L234.70-36.21L234.70-36.21Q233.89-36.21 233.89-37.33L233.89-37.33L233.89-37.33Q233.89-43.04 235.93-43.25L235.93-43.25L235.93-43.25Q238.68-43.25 241.74-44.68L241.74-44.68L241.74-44.68Q247.86-47.53 247.86-56.41L247.86-56.41L247.86-56.41Q247.86-65.99 236.84-65.99L236.84-65.99L233.68-65.79L233.68-65.79Q231.85-65.38 231.64-64.26L231.64-64.26L231.64-63.95L231.64-63.95Q230.52-59.87 230.52-45.90ZM215.53 1.43L215.53 1.43L215.73 0.31L215.73 0.31Q216.75-1.53 217.46-14.64L217.46-14.64L217.46-14.64Q218.18-27.74 218.18-39.12L218.18-39.12L218.18-39.12Q218.18-50.49 217.72-57.38L217.72-57.38L217.72-57.38Q217.26-64.26 215.22-67.32L215.22-67.32L215.22-67.32Q214.81-67.83 214.81-68.54L214.81-68.54L214.81-68.54Q214.81-69.26 216.04-69.77L216.04-69.77L216.04-69.77Q224.40-73.03 238.78-73.03L238.78-73.03L238.78-73.03Q242.35-73.03 246.53-72.06L246.53-72.06L246.53-72.06Q250.72-71.09 253.42-69.67L253.42-69.67L253.42-69.67Q256.12-68.24 258.32-65.28L258.32-65.28L258.32-65.28Q260.51-62.32 260.81-58.24L260.81-58.24L260.81-58.24Q260.81-43.45 248.57-41.21L248.57-41.21L248.57-41.21Q247.96-41.00 247.96-40.75L247.96-40.75L247.96-40.75Q247.96-40.49 248.47-40.19L248.47-40.19L248.47-40.19Q254.80-39.17 259.08-35.09L259.08-35.09L259.08-35.09Q261.22-33.15 262.96-29.07L262.96-29.07L262.96-29.07Q264.69-24.99 264.69-19.69L264.69-19.69L264.69-19.69Q264.69-12.85 260.71-6.73L260.71-6.73L260.71-6.73Q257.45-1.73 251.23 0.41L251.23 0.41L251.23 0.41Q247.76 1.63 243.47 1.63L243.47 1.63L243.47 1.63Q232.76 1.63 229.91-5.20L229.91-5.20L229.91-5.20Q229.81-5.51 229.60-5.51L229.60-5.51L229.19-5.10L229.19-5.10Q227.05 2.04 216.95 2.35L216.95 2.35L216.95 2.35Q215.53 2.35 215.53 1.43ZM282.44-58.34L282.44-58.34L281.83-20.91L281.83-20.91Q281.83-3.37 282.95 0.10L282.95 0.10L282.95 0.10Q283.25 0.71 283.25 1.33L283.25 1.33L283.25 1.33Q283.25 2.55 280.30 2.55L280.30 2.55L280.30 2.55Q277.34 2.55 273.72 1.07L273.72 1.07L273.72 1.07Q270.10-0.41 270.10-2.75L270.10-2.75L270.10-2.75Q272.14-17.03 272.14-40.90L272.14-40.90L271.73-56.51L271.73-56.51Q271.52-59.36 270.56-61.40L270.56-61.40L270.56-61.40Q269.59-63.44 268.67-64.06L268.67-64.06L267.85-64.57L267.85-64.57Q267.14-64.97 267.14-65.48L267.14-65.48L267.14-65.48Q267.14-66.91 271.58-69.00L271.58-69.00L271.58-69.00Q276.01-71.09 280.19-71.09L280.19-71.09L280.19-71.09Q281.83-71.09 282.03-69.97L282.03-69.97L282.03-69.97Q282.44-67.32 282.44-58.34ZM299.37-38.45L299.37-38.45L299.37-38.45Q296.72-38.35 295.55-38.30L295.55-38.30L295.55-38.30Q294.37-38.25 294.37-38.86L294.37-38.86L294.37-38.86Q294.37-39.47 294.98-40.09L294.98-40.09L294.98-40.09Q301.51-46.10 317.02-46.10L317.02-46.10L317.02-46.10Q322.32-46.10 325.38-45.19L325.38-45.19L326.40-44.88L326.40-44.88Q327.62-44.37 327.62-43.76L327.62-43.76L327.62-43.76Q327.62-43.25 326.91-42.94L326.91-42.94L326.91-42.94Q324.16-42.13 321.61-40.34L321.61-40.34L321.61-40.34Q319.06-38.56 319.06-37.84L319.06-37.84L319.67-37.13L319.67-37.13Q322.93-35.29 324.72-31.31L324.72-31.31L324.72-31.31Q326.50-27.34 326.71-24.28L326.71-24.28L326.91-21.11L326.91-21.11Q326.91-11.02 321.30-4.49L321.30-4.49L321.30-4.49Q315.69 2.04 306.00 2.04L306.00 2.04L306.00 2.04Q301.10 2.04 297.53 0.31L297.53 0.31L297.53 0.31Q293.96-1.43 292.28-3.62L292.28-3.62L292.28-3.62Q290.60-5.81 289.58-8.57L289.58-8.57L289.58-8.57Q288.35-12.34 288.35-16.37L288.35-16.37L288.35-16.37Q288.35-20.40 289.73-24.48L289.73-24.48L289.73-24.48Q291.11-28.56 292.89-30.50L292.89-30.50L292.89-30.50Q294.68-32.44 296.92-33.66L296.92-33.66L296.92-33.66Q299.78-35.19 301.51-35.19L301.51-35.19L301.51-35.19Q303.25-35.19 303.25-34.48L303.25-34.48L302.63-33.46L302.63-33.46Q300.39-30.80 299.42-26.52L299.42-26.52L299.42-26.52Q298.45-22.24 298.45-18.92L298.45-18.92L298.45-18.92Q298.45-15.61 299.27-12.34L299.27-12.34L299.27-12.34Q300.08-9.08 301.10-7.50L301.10-7.50L301.10-7.50Q302.12-5.92 303.45-5.10L303.45-5.10L303.45-5.10Q305.39-3.88 307.53-3.88L307.53-3.88L307.53-3.88Q309.67-3.88 311.71-5.56L311.71-5.56L311.71-5.56Q313.75-7.24 314.67-10.00L314.67-10.00L314.67-10.00Q316.51-15.10 316.51-20.50L316.51-20.50L316.51-20.50Q316.51-29.07 312.17-33.76L312.17-33.76L312.17-33.76Q307.84-38.45 299.37-38.45ZM338.95-41.16L338.95-41.16L338.95-41.16Q341.19-43.45 344.86-45.03L344.86-45.03L344.86-45.03Q348.53-46.61 351.90-46.61L351.90-46.61L351.90-46.61Q355.27-46.61 358.73-45.08L358.73-45.08L358.73-45.08Q359.14-45.08 359.35-45.29L359.35-45.29L359.35-45.29Q362.00-47.94 367.10-47.94L367.10-47.94L367.10-47.94Q368.32-47.94 368.32-46.82L368.32-46.82L368.32-46.82Q368.32-46.72 368.12-45.90L368.12-45.90L368.12-45.90Q367.91-45.08 367.61-43.50L367.61-43.50L367.61-43.50Q367.30-41.92 367.10-39.68L367.10-39.68L367.10-39.68Q366.38-33.86 366.33-26.83L366.33-26.83L366.33-26.83Q366.28-19.79 366.28-12.75L366.28-12.75L366.59 8.67L366.59 8.67Q366.59 18.97 361.28 25.81L361.28 25.81L361.28 25.81Q359.14 28.56 354.81 30.60L354.81 30.60L354.81 30.60Q350.47 32.64 344.66 32.64L344.66 32.64L344.66 32.64Q343.33 31.82 343.33 31.01L343.33 31.01L343.33 31.01Q343.33 30.19 344.45 29.68L344.45 29.68L344.45 29.68Q350.88 26.72 353.63 15.66L353.63 15.66L353.63 15.66Q356.39 4.59 356.39-17.95L356.39-17.95L356.18-32.23L355.88-39.17L355.88-39.17Q355.88-40.09 353.02-40.49L353.02-40.49L353.02-40.49Q349.35-40.49 346.85-38.10L346.85-38.10L346.85-38.10Q344.35-35.70 343.43-31.82L343.43-31.82L343.43-31.82Q341.80-25.60 341.80-21.06L341.80-21.06L341.80-21.06Q341.80-16.52 343.28-13.06L343.28-13.06L343.28-13.06Q344.76-9.59 348.43-9.59L348.43-9.59L348.43-9.59Q349.45-9.59 350.32-10.00L350.32-10.00L350.32-10.00Q351.19-10.40 351.49-10.40L351.49-10.40L351.49-10.40Q352.51-10.40 352.51-8.36L352.51-8.36L352.51-8.36Q352.51-6.32 352.21-5.05L352.21-5.05L352.21-5.05Q351.90-3.77 350.98-2.24L350.98-2.24L350.98-2.24Q348.94 1.12 343.03 1.12L343.03 1.12L343.03 1.12Q337.11 1.12 334.56-3.16L334.56-3.16L334.56-3.16Q331.91-7.55 331.50-11.02L331.50-11.02L331.50-11.02Q330.89-16.22 330.89-17.85L330.89-17.85L330.89-17.85Q330.89-19.48 330.94-20.45L330.94-20.45L330.94-20.45Q330.99-21.42 331.45-24.33L331.45-24.33L331.45-24.33Q331.91-27.23 332.67-29.84L332.67-29.84L332.67-29.84Q333.44-32.44 335.07-35.65L335.07-35.65L335.07-35.65Q336.70-38.86 338.95-41.16ZM403.92-13.97L403.92-13.97L403.92-13.97Q403.92-9.59 402.24-6.32L402.24-6.32L402.24-6.32Q400.55-3.06 398.41-1.53L398.41-1.53L398.41-1.53Q396.27 0 393.31 0.92L393.31 0.92L393.31 0.92Q389.44 2.14 386.27 2.14L386.27 2.14L386.27 2.14Q379.64 2.14 375.26-0.46L375.26-0.46L375.26-0.46Q370.87-3.06 370.87-8.77L370.87-8.77L370.87-8.77Q370.87-12.14 372.71-14.28L372.71-14.28L372.71-14.28Q375.56-17.44 379.54-17.44L379.54-17.44L379.54-17.44Q380.77-17.44 380.77-16.32L380.77-16.32L380.77-16.32Q380.77-16.22 380.31-14.74L380.31-14.74L380.31-14.74Q379.85-13.26 379.85-11.02L379.85-11.02L379.85-11.02Q379.85-8.77 381.63-7.04L381.63-7.04L381.63-7.04Q383.42-5.30 385.97-5.30L385.97-5.30L385.97-5.30Q388.52-5.30 390.05-6.17L390.05-6.17L390.05-6.17Q391.58-7.04 392.19-8.36L392.19-8.36L392.19-8.36Q393.11-10.20 393.11-11.83L393.11-11.83L393.11-11.83Q393.11-14.79 390.15-16.93L390.15-16.93L390.15-16.93Q387.19-19.07 383.62-20.30L383.62-20.30L383.62-20.30Q380.05-21.52 377.09-24.38L377.09-24.38L377.09-24.38Q374.14-27.23 374.14-31.52L374.14-31.52L374.14-31.52Q374.14-38.86 378.78-42.53L378.78-42.53L378.78-42.53Q383.42-46.21 391.37-46.21L391.37-46.21L391.37-46.21Q394.84-46.21 398.67-45.24L398.67-45.24L398.67-45.24Q402.49-44.27 402.49-41.97L402.49-41.97L402.49-41.97Q402.49-39.68 401.73-37.74L401.73-37.74L401.73-37.74Q400.96-35.80 399.84-35.80L399.84-35.80L399.84-35.80Q399.23-35.80 399.02-36.26L399.02-36.26L399.02-36.26Q398.82-36.72 398.31-37.33L398.31-37.33L398.31-37.33Q397.80-37.94 395.86-38.91L395.86-38.91L395.86-38.91Q393.92-39.88 392.55-39.88L392.55-39.88L392.55-39.88Q391.17-39.88 390.71-39.83L390.71-39.83L390.71-39.83Q390.25-39.78 389.13-39.53L389.13-39.53L389.13-39.53Q388.01-39.27 387.09-38.76L387.09-38.76L387.09-38.76Q384.74-37.43 384.74-34.88L384.74-34.88L384.74-34.88Q384.74-33.25 385.46-32.49L385.46-32.49L385.46-32.49Q386.17-31.72 386.58-31.31L386.58-31.31L386.58-31.31Q386.99-30.91 388.01-30.35L388.01-30.35L388.01-30.35Q389.03-29.78 389.44-29.58L389.44-29.58L389.44-29.58Q389.84-29.38 391.27-28.71L391.27-28.71L391.27-28.71Q392.70-28.05 393.11-27.85L393.11-27.85L393.11-27.85Q403.92-22.75 403.92-13.97Z"></path></g></g><style>text {
  font-size: 64px;
  font-family: Arial Black;
  dominant-baseline: central;
  text-anchor: middle;
}</style></svg>